PathFileType	4	(X/Y/Z)	C:/Users/beibeiliu/ov580/test_trc/User3\sequence.6_training_dense_left.trc
DataRate	CameraRate	NumFrames	NumMarkers	Units	OrigDataRate	OrigDataStartFrame	OrigNumFrames
120	120	21	19	mm	120	25	98
Frame#	Time	ThumbCMC			ThumbMCP			ThumbIP			ThumbTip			IndexMCP			IndexPIP			IndexTip			MiddleMCP			MiddlePIP			MiddleTip			RingMCP			RingPIP			RingTip			PinkyMCP			PinkyPIP			PinkyTip			BackHand1			BackHand2			BackHand3	
		X0	Y0	Z0	X1	Y1	Z1	X2	Y2	Z2	X3	Y3	Z3	X4	Y4	Z4	X5	Y5	Z5	X6	Y6	Z6	X7	Y7	Z7	X8	Y8	Z8	X9	Y9	Z9	X10	Y10	Z10	X11	Y11	Z11	X12	Y12	Z12	X13	Y13	Z13	X14	Y14	Z14	X15	Y15	Z15	X16	Y16	Z16	X17	Y17	Z17	X18	Y18	Z18	
24	0.2	-75.7325	11.0132	-13.6628	-68.6408	-7.96231	-44.6783	-75.897	-17.9629	-68.4741	-93.3419	-23.8181	-90.0054	-75.8956	41.0355	-84.2462	-69.0534	41.3216	-109.117	-61.4864	37.1924	-136.157	-103.246	18.8988	-92.5365	-103.76	-13.8984	-93.6708	-106.626	-10.2231	-51.4167	-124.534	6.46531	-81.3185	-119.231	-20.9989	-69.3046	-116.363	-10.4496	-38.0357	-138.011	2.22783	-71.9809	-132.086	-18.8559	-57.8128	-123.222	-5.38212	-31.4807	-126.216	47.886	-38.6934	-135.262	45.6319	-8.60818	-100.754	45.1379	-17.6882	
25	0.208333	-78.568	10.4244	-11.2067	-66.7854	-9.39347	-40.9009	-73.0516	-18.7071	-72.6789	-91.5561	-22.6605	-90.8029	-72.3563	42.4612	-85.324	-61.502	40.8877	-110.993	-54.8468	35.1382	-135.436	-98.9568	20.3244	-93.6043	-99.1689	-13.3381	-92.1687	-103.712	-9.41082	-52.3426	-121.744	10.1262	-81.5423	-120.093	-18.4455	-65.8242	-114.721	-3.97129	-34.83	-134.026	7.86941	-71.3054	-128.695	-14.3212	-55.4575	-123.391	-0.156312	-29.7712	-125.596	50.5737	-34.8881	-125.193	49.7104	-6.86795	-94.3183	45.5244	-17.4849	
26	0.216667	-71.5745	9.96954	-9.63542	-64.3085	-7.61395	-39.5479	-71.5131	-13.948	-68.0186	-89.0502	-16.4635	-85.3108	-62.488	41.1999	-75.6511	-55.9087	41.9255	-104.653	-49.2794	30.1784	-127.902	-95.2677	23.2688	-90.6134	-93.0522	-8.00782	-92.3762	-97.8563	-11.6677	-53.725	-111.351	13.2566	-80.0668	-112.713	-15.686	-66.7165	-106.722	-4.07112	-34.7191	-132.232	12.7158	-69.4879	-122.522	-10.5798	-55.2993	-119.64	-0.934652	-28.1235	-120.029	51.5636	-36.4174	-125.577	51.3299	-0.860619	-87.8841	45.7645	-14.6576	
27	0.225	-73.7204	12.6594	-6.30278	-60.6875	-6.24186	-33.8232	-63.6741	-12.139	-68.305	-79.925	-16.3267	-88.5282	-63.838	43.4198	-73.123	-47.474	40.1585	-103.458	-47.9766	23.1482	-125.339	-86.542	24.2852	-88.8461	-91.7015	-7.19946	-91.7594	-93.4741	-8.56635	-49.3133	-111.104	15.493	-78.3332	-110.432	-14.4866	-65.1656	-107.976	-5.69341	-35.7039	-129.951	12.4971	-69.8787	-121.08	-9.86559	-58.4352	-117.775	1.07223	-29.3963	-114.504	50.5379	-32.2826	-124.929	49.058	-0.67192	-88.1639	47.222	-14.8648	
28	0.233333	-70.5421	14.4221	-6.80504	-63.0562	-1.79949	-31.2252	-62.2671	-10.4897	-62.6917	-75.6438	-15.5443	-82.9622	-62.9599	45.9503	-74.5407	-51.2492	42.5392	-101.538	-46.1476	18.6835	-125.702	-85.7615	26.9863	-85.2187	-85.5352	-7.92423	-90.5939	-93.6199	-10.191	-55.3004	-107.403	11.2491	-78.5453	-104.362	-16.6031	-65.5583	-103.515	-6.39702	-35.8177	-125.057	10.741	-70.0072	-119.107	-13.5289	-54.6609	-117.285	0.338927	-27.6419	-120.446	50.7765	-37.0586	-126.373	48.2917	-0.336093	-91.297	49.3484	-11.9262	
29	0.241667	-75.1191	14.8244	-3.66728	-64.8005	0.392962	-32.934	-57.1859	-11.7835	-61.2867	-72.696	-18.7668	-84.4182	-68.0401	46.1253	-73.4149	-51.0355	44.964	-100.071	-39.4042	26.7634	-123.71	-91.053	24.4685	-89.1806	-85.811	-8.34158	-90.9051	-92.0569	-9.01447	-50.0512	-107.801	9.43063	-78.1295	-104.398	-17.8722	-65.8613	-107.212	-7.92799	-34.9206	-124.14	6.74794	-69.6437	-116.257	-16.8634	-54.1323	-115.702	-0.917728	-28.429	-121.294	47.1893	-33.8641	-129.787	44.3086	-5.01103	-94.905	48.8377	-12.328	
30	0.25	-79.4556	17.6939	-8.27938	-61.4733	1.03498	-34.3004	-61.8023	-11.0672	-58.8228	-75.1947	-19.6785	-82.437	-66.7141	46.6079	-77.259	-58.1544	45.5128	-99.631	-44.1855	35.6082	-127.666	-93.8229	21.0182	-87.0596	-85.6724	-12.6704	-89.333	-92.7254	-12.676	-52.172	-108.403	2.92837	-79.6418	-104.506	-23.3567	-62.8654	-101.354	-9.04418	-33.7034	-124.854	-3.06728	-69.9367	-116.108	-22.0077	-53.9756	-116.379	-4.34122	-24.4795	-130.791	42.9715	-40.1976	-137.457	39.7991	-6.49697	-102.406	48.0474	-16.1033	
31	0.258333	-80.7993	19.6774	-6.04752	-59.9413	2.3341	-32.2758	-58.9278	-9.59409	-57.1086	-67.1716	-23.8734	-80.9317	-76.5356	43.4904	-80.9347	-61.3677	43.9365	-101.317	-47.2739	36.5201	-125.876	-91.1608	12.3591	-89.5443	-78.9472	-16.5761	-84.1693	-86.4048	-12.3848	-45.3113	-109.838	-5.06958	-76.2753	-96.5138	-27.509	-63.5539	-99.0996	-13.7873	-31.4066	-125.623	-13.0429	-67.7288	-110.041	-30.9058	-48.7963	-112.616	-15.6476	-25.3603	-135.341	32.9429	-40.5753	-140.579	30.9527	-6.85423	-104.973	44.7908	-18.5196	
32	0.266667	-86.9534	24.7518	-9.07819	-64.6902	11.6244	-31.7119	-54.9439	-3.47015	-57.6588	-65.4654	-21.1401	-76.1257	-90.1229	41.3456	-79.4154	-76.2299	40.6241	-107.989	-59.4828	30.0388	-128.906	-98.192	5.97412	-87.1629	-74.9237	-17.8401	-83.5838	-83.0777	-10.5614	-44.809	-105.238	-12.2466	-75.2494	-87.5929	-31.846	-60.0274	-94.0803	-17.296	-29.8332	-118.372	-28.0826	-64.1885	-97.1469	-33.1656	-46.5508	-107.015	-16.6695	-21.638	-143.634	16.0249	-42.765	-147.736	17.0172	-8.05007	-122.698	35.341	-21.4603	
33	0.275	-95.925	32.7742	-10.6984	-70.6377	21.8697	-35.139	-58.2959	5.25254	-61.6461	-61.4332	-14.9289	-72.6712	-106.503	31.4516	-85.7608	-91.8031	32.1955	-113.467	-66.8895	22.9457	-128.217	-97.7506	0.308712	-88.1598	-71.1654	-14.0404	-80.8562	-80.7658	-6.78399	-44.1105	-99.0505	-18.8636	-72.6276	-78.6138	-28.2125	-55.3649	-92.0999	-12.7275	-26.7843	-105.084	-36.7032	-60.5823	-87.6064	-31.9252	-41.5165	-100.979	-20.8099	-17.2024	-145.732	2.34458	-42.5912	-152.643	3.20079	-12.6462	-135.626	28.9432	-26.3176	
34	0.283333	-112.405	34.9629	-14.2812	-82.4897	33.0967	-36.2071	-66.984	19.3674	-58.3905	-63.4182	-5.24775	-70.5892	-119.443	24.0312	-87.84	-101.587	22.381	-118.458	-79.3896	19.2855	-128.882	-99.4787	-2.93034	-88.683	-69.9651	-6.42222	-76.0083	-88.4623	2.19031	-41.5479	-96.5651	-22.0277	-69.7638	-71.5171	-15.6051	-50.1902	-93.1195	-5.40332	-25.1483	-100.281	-37.3356	-55.0544	-79.4417	-24.296	-36.8668	-99.3346	-12.9168	-17.335	-146.601	-12.5511	-41.1034	-155.032	-10.9589	-7.60836	-146.65	16.594	-28.6673	
35	0.291667	-130.532	36.0958	-18.2088	-102.519	38.9812	-44.401	-82.8061	29.8144	-61.8516	-68.6662	7.80077	-69.2697	-132.208	12.6053	-92.8945	-116.135	16.7149	-123.087	-94.7435	18.2606	-134.785	-99.9323	-7.71943	-87.6184	-74.4161	7.41116	-75.7023	-94.8965	12.2126	-42.5969	-91.7166	-18.6373	-67.2626	-72.512	-1.7286	-47.4082	-95.5286	3.6433	-26.5257	-86.1112	-29.0934	-53.4261	-77.0916	-9.99607	-33.9284	-98.2751	-9.39382	-15.5284	-142.475	-28.9056	-41.2721	-152.882	-25.8801	-8.61765	-153.974	3.67613	-29.0839	
36	0.3	-148.985	28.3955	-24.483	-123.403	38.5233	-49.6139	-100.397	36.5338	-66.3862	-75.7431	23.0798	-75.7068	-137.395	-3.75469	-94.7983	-130.401	-0.456489	-121.678	-111.622	8.15975	-142.426	-104.846	-5.86209	-87.3819	-84.1057	18.3903	-80.3288	-101.238	14.2854	-44.5139	-92.4808	-12.8698	-66.6798	-78.4811	10.1181	-52.4508	-106.556	9.49692	-27.962	-84.1047	-16.5744	-52.2375	-81.7141	3.65436	-36.3572	-103.4	-3.71385	-14.9289	-133.043	-38.5608	-35.5668	-145.811	-35.7283	-8.57227	-157.249	-11.8033	-31.1831	
37	0.308333	-156.434	16.6309	-28.304	-136.608	32.5456	-54.7643	-114.767	36.7295	-70.6627	-88.3201	29.8604	-80.3274	-140.552	-14.8665	-99.0767	-134.959	-8.98811	-126.803	-120.431	8.54065	-144.885	-106.709	-8.78263	-86.9422	-91.6339	20.1245	-82.008	-108.102	14.5135	-48.0468	-91.9111	-9.76457	-67.7494	-88.0958	19.6167	-53.1262	-110.257	8.31168	-27.5594	-82.9707	-15.8601	-52.3336	-82.764	9.86084	-37.6887	-104.474	5.16244	-19.5286	-130.005	-39.9999	-34.5445	-136.525	-42.913	-4.96526	-158.857	-21.6581	-34.2992	
38	0.316667	-160.029	6.36251	-27.6066	-146.505	28.5555	-55.1795	-124.593	34.0198	-76.5199	-99.7063	28.7963	-80.1393	-143.211	-22.449	-93.868	-138.455	-13.9239	-127.248	-120.013	7.46146	-138.741	-112.74	-10.1718	-90.3051	-98.8542	19.6345	-84.7113	-115.734	10.3172	-48.9508	-96.1562	-6.70876	-71.4394	-92.3776	20.4016	-57.183	-112.763	11.3163	-31.7684	-85.1013	-9.68318	-54.5156	-86.4741	13.4659	-40.3004	-108.459	1.74255	-17.3866	-121.862	-43.85	-32.9015	-135.147	-43.7988	-6.23182	-158.119	-31.0676	-32.4157	
39	0.325	-162.495	-0.399203	-26.2304	-151.812	19.3875	-51.3084	-130.661	28.6712	-77.8719	-101.927	24.6463	-83.9294	-142.15	-29.5079	-97.1477	-138.329	-22.7926	-124.049	-124.249	6.79466	-135.752	-109.152	-11.7903	-90.9893	-104.624	18.7407	-83.9444	-118.357	10.462	-51.8615	-99.5119	-7.2955	-71.6852	-97.9956	20.2391	-56.9332	-117.098	7.37939	-30.4152	-85.6392	-6.11891	-55.5451	-93.317	15.2747	-41.2631	-111.297	-0.617278	-21.1231	-122.426	-46.8389	-33.8621	-128.991	-46.4203	-3.81836	-157.432	-35.6172	-28.8403	
40	0.333333	-169.465	-3.29395	-28.1862	-157.501	14.6628	-54.5684	-139.428	25.1706	-78.4728	-111.174	25.7195	-85.3044	-142.72	-35.7367	-95.4723	-141.116	-28.8039	-124.182	-129.734	-7.59071	-141.208	-113.719	-12.4355	-90.2763	-111.471	18.3257	-85.9356	-129.709	7.62499	-51.9702	-100.021	-6.32131	-70.9918	-104.015	21.7137	-58.8546	-124.242	6.108	-33.0376	-90.4833	-7.39061	-56.5771	-97.4697	16.5561	-42.3589	-116.533	1.4732	-22.9871	-115.264	-47.7886	-34.6729	-127.081	-47.9487	-2.80271	-153.265	-42.4471	-27.346	
41	0.341667	-172.393	-9.02781	-26.6919	-162.707	11.1028	-50.8062	-142.695	22.9766	-79.8635	-115.785	21.3556	-83.4359	-147.205	-38.1488	-92.127	-145.107	-37.6992	-120.328	-135.431	-23.1452	-143.99	-116.674	-13.7612	-91.0827	-117.703	17.5703	-85.8834	-128.128	4.47474	-49.9656	-102.253	-8.04912	-71.2226	-110.64	20.186	-60.5893	-127.715	6.02785	-34.8559	-89.8008	-5.00384	-56.9264	-102.956	16.0752	-43.6221	-117.105	-2.91944	-20.7837	-117.531	-48.5306	-33.4851	-128.424	-48.3157	-3.29147	-155.551	-44.6157	-25.4874	
42	0.35	-169.197	-7.32224	-28.1876	-164.076	13.5826	-54.9853	-139.387	19.3056	-77.4645	-116.563	20.0886	-81.6931	-151.45	-38.7083	-91.7838	-145.735	-36.9599	-123.805	-136.937	-21.051	-148.156	-117.999	-14.3981	-91.9702	-115.194	15.5668	-85.496	-133.185	2.52521	-50.2408	-103.518	-10.3432	-71.1091	-106.064	17.6374	-57.2986	-126.187	4.84127	-34.4963	-90.5171	-8.55732	-57.2878	-102.168	14.3358	-45.6738	-117.998	-0.24719	-23.7496	-121.505	-49.7985	-31.2258	-129.556	-48.3717	-1.33202	-156.404	-43.4898	-25.0746	
43	0.358333	-169.953	1.83952	-28.6298	-157.17	17.9544	-55.3393	-138.258	25.4752	-77.2414	-108.781	20.453	-84.957	-148.41	-35.3806	-93.276	-148.065	-32.6841	-123.461	-133.368	-12.7376	-142.205	-117.777	-17.3857	-89.9802	-113.411	16.924	-87.8641	-127.338	7.41663	-53.9298	-103.553	-9.31614	-74.3843	-101.322	16.4903	-62.789	-120.721	5.87099	-34.0785	-93.2223	-10.9619	-60.6585	-96.6287	12.561	-47.8304	-113.577	4.00458	-25.5462	-127.588	-47.7662	-35.2289	-132.585	-46.6883	-1.27605	-162.414	-35.7663	-26.3533	
44	0.366667	-163.751	13.454	-27.0909	-150.444	31.4657	-58.192	-127.946	31.0569	-84.7631	-105.06	18.8013	-85.9886	-154.702	-22.6332	-94.2748	-146.406	-21.5741	-124.995	-124.302	3.81308	-134.275	-123.464	-14.8236	-92.3832	-105.708	12.6047	-93.041	-123.958	12.3248	-55.9788	-102.677	-10.9831	-76.1732	-95.2276	13.5044	-64.969	-116.596	7.82112	-35.9886	-95.1612	-18.6913	-60.2028	-92.577	9.11677	-47.2292	-114.55	2.20861	-26.7993	-136.04	-41.9897	-34.7939	-145.052	-37.6923	-5.75954	-168.111	-23.6535	-31.9357	
